<svg xmlns="http://www.w3.org/2000/svg" xmlns:xlink="http://www.w3.org/1999/xlink" id="svg-root" width="100%" height="100%" baseProfile="full" version="1.1" viewBox="0 0 480 360"><title id="test-title">color-prop-02-f.svg</title><desc id="test-desc">Test that viewer has the basic capability to render X11colors, using any of the equivalent forms.</desc><g id="test-body-content"><g><circle cx="75" cy="40" r="20" fill="#dc143c"/><circle cx="115" cy="40" r="20" fill="#DC143C"/><circle cx="75" cy="80" r="20" fill="#DC143C"/><circle cx="115" cy="80" r="20" fill="#DC143C"/></g><g><circle cx="200" cy="40" r="20" fill="#98fb98"/><circle cx="240" cy="40" r="20" fill="#98FB98"/><circle cx="200" cy="80" r="20" fill="#98FB98"/><circle cx="240" cy="80" r="20" fill="#98FB98"/></g><g><circle cx="325" cy="40" r="20" fill="#4169e1"/><circle cx="365" cy="40" r="20" fill="#4169E1"/><circle cx="325" cy="80" r="20" fill="#4169E1"/><circle cx="365" cy="80" r="20" fill="#4169E1"/></g><g><circle cx="75" cy="135" r="20" fill="#b22222"/><circle cx="115" cy="135" r="20" fill="#B22222"/><circle cx="75" cy="175" r="20" fill="#B22222"/><circle cx="115" cy="175" r="20" fill="#B22222"/></g><g><circle cx="200" cy="135" r="20" fill="#2e8b57"/><circle cx="240" cy="135" r="20" fill="#2E8B57"/><circle cx="200" cy="175" r="20" fill="#2E8B57"/><circle cx="240" cy="175" r="20" fill="#2E8B57"/></g><g><circle cx="325" cy="135" r="20" fill="#0000cd"/><circle cx="365" cy="135" r="20" fill="#0000CD"/><circle cx="325" cy="175" r="20" fill="#0000CD"/><circle cx="365" cy="175" r="20" fill="#0000CD"/></g><g><circle cx="75" cy="230" r="20" fill="#cd5c5c"/><circle cx="115" cy="230" r="20" fill="#CD5C5C"/><circle cx="75" cy="270" r="20" fill="#CD5C5C"/><circle cx="115" cy="270" r="20" fill="#CD5C5C"/></g><g><circle cx="200" cy="230" r="20" fill="#7cfc00"/><circle cx="240" cy="230" r="20" fill="#7CFC00"/><circle cx="200" cy="270" r="20" fill="#7CFC00"/><circle cx="240" cy="270" r="20" fill="#7CFE00"/></g><g><circle cx="325" cy="230" r="20" fill="#48d1cc"/><circle cx="365" cy="230" r="20" fill="#48D1CC"/><circle cx="325" cy="270" r="20" fill="#48D1CC"/><circle cx="365" cy="270" r="20" fill="#48D1CC"/></g></g><text id="revision" x="10" y="340" fill="#000" stroke="none" font-size="40">$Revision: 1.4 $</text><rect id="test-frame" width="478" height="358" x="1" y="1" fill="none" stroke="#000"/></svg>