<svg xmlns="http://www.w3.org/2000/svg" xmlns:xlink="http://www.w3.org/1999/xlink" id="svg-root" width="100%" height="100%" baseProfile="tiny" version="1.1" viewBox="0 0 480 360"><title id="test-title">coords-trans-03-t</title><desc id="test-desc">Validates elementary transforms and transformation nesting</desc><g id="test-body-content" transform="translate(0, 30)"><g id="elementary-transforms-test" transform="translate(0, 10)"><g id="elementary-transforms"><g transform="translate(-560, 0) scale(2.5, 2.5) translate(250, 50) skewX(45)"><rect width="20" height="2" x="0" y="0" fill="#00f"/><rect width="2" height="20" x="0" y="0" fill="red"/></g><g transform="translate(-560, 0) scale(2.5, 2.5) translate(350, 50) skewY(45)"><rect width="20" height="2" x="0" y="0" fill="#00f"/><rect width="2" height="20" x="0" y="0" fill="red"/></g></g><g id="elementary-transforms-test-markers" transform="translate(-560, 0) scale(2.5, 2.5)"><text x="240" y="40">skew x (45)</text><rect width="5" height="5" x="248" y="48" fill="#000"/><rect width="5" height="5" x="268" y="48" fill="#00f"/><rect width="5" height="5" x="268" y="68" fill="red"/><text x="340" y="40">skew y (45)</text><rect width="5" height="5" x="348" y="48" fill="#000"/><rect width="5" height="5" x="368" y="68" fill="#00f"/><rect width="5" height="5" x="348" y="68" fill="red"/></g></g></g><text id="revision" x="10" y="340" fill="#000" stroke="none" font-size="40">$Revision: 1.5 $</text><rect id="test-frame" width="478" height="358" x="1" y="1" fill="none" stroke="#000"/></svg>