<svg xmlns="http://www.w3.org/2000/svg" xmlns:xlink="http://www.w3.org/1999/xlink" id="svg-root" width="100%" height="100%" baseProfile="full" version="1.1"><title id="test-title">filters-displace-01-f</title><desc id="test-desc">Test which verifies the basic facilities of feDisplacementMap.</desc><g id="test-body-content"><defs><filter id="DispMapChecker" width="1" height="1" x="0" y="0" filterUnits="objectBoundingBox"><feImage xlink:href="../images/DisplaceChecker.png"/></filter><filter id="RotateMap" width="1" height="1" x="0" y="0" filterUnits="objectBoundingBox"><feImage xlink:href="../images/rotate20.png"/></filter><filter id="SphereMap" width="1" height="1" x="0" y="0" filterUnits="objectBoundingBox"><feImage xlink:href="../images/sphere.png"/></filter><filter id="RotateMapTest" width="1" height="1" x="0" y="0" filterUnits="objectBoundingBox"><feImage result="Map" xlink:href="../images/rotate20.png"/><feImage result="Texture" xlink:href="../images/DisplaceChecker.png"/><feDisplacementMap in="Texture" in2="Map" scale="64" xChannelSelector="R" yChannelSelector="G"/></filter><filter id="SphereMapTest" width="1" height="1" x="0" y="0" filterUnits="objectBoundingBox"><feImage result="Map" xlink:href="../images/sphere.png"/><feImage result="Texture" xlink:href="../images/DisplaceChecker.png"/><feDisplacementMap in="Texture" in2="Map" scale="64" xChannelSelector="R" yChannelSelector="G"/></filter></defs><g font-family="Arial" font-size="12" text-anchor="middle"><rect width="128" height="128" x="15" y="15" filter="url(#DispMapChecker)"/><rect width="118" height="20" x="20" y="115" fill="#DDD"/><text x="79" y="130">Checkerboard Image</text><rect width="128" height="128" x="158" y="15" filter="url(#RotateMap)"/><rect width="118" height="30" x="163" y="112" fill="#DDD"/><text><tspan x="222" y="125">Displacement Map</tspan> <tspan x="222" y="138">(20 deg. rotation)</tspan></text><rect width="128" height="128" x="301" y="15" filter="url(#RotateMapTest)"/><rect width="2" height="2" x="-1" y="-1" fill="#00f" fill-opacity=".5" transform="translate(365,79) rotate(20) scale(32)"/><text><tspan x="365" y="160">Result</tspan> <tspan x="365" y="172">(overlayed with 20 deg.</tspan> <tspan x="365" y="184">rotated blue rectangle)</tspan></text><rect width="128" height="128" x="15" y="158" filter="url(#DispMapChecker)"/><rect width="118" height="20" x="20" y="258" fill="#DDD"/><text x="79" y="273">Checkerboard Image</text><rect width="128" height="128" x="158" y="158" filter="url(#SphereMap)"/><rect width="118" height="30" x="163" y="255" fill="#DDD"/><text><tspan x="222" y="268">Displacement Map</tspan> <tspan x="222" y="283">(spherical distortion)</tspan></text><rect width="128" height="128" x="301" y="200" filter="url(#SphereMapTest)"/><text x="365" y="345">Result</text></g></g><text id="revision" x="10" y="340" fill="#000" stroke="none" font-size="40">$Revision: 1.6 $</text><rect id="test-frame" width="478" height="358" x="1" y="1" fill="none" stroke="#000"/></svg>