<svg xmlns="http://www.w3.org/2000/svg" xmlns:xlink="http://www.w3.org/1999/xlink" id="svg-root" width="100%" height="100%" baseProfile="basic" version="1.1" viewBox="0 0 480 360"><title id="test-title">masking-path-03-b</title><desc id="test-desc">Test &apos;overflow&apos;/&apos;clip&apos; on outermost and inner &apos;svg&apos; elements.</desc><g id="test-body-content"><text x="10" y="70" font-family="Arial" font-size="18">Test &apos;overflow&apos;/&apos;clip&apos; on outermost and inner &apos;svg&apos; elements</text><g stroke-width="2" font-family="Arial" font-size="48"><g transform="translate(115,-20)"><rect width="250" height="60" fill="#ccf" stroke="#f88"/><text x="15" y="45">Outer Clip</text></g><g transform="translate(-175,150)"><rect width="250" height="60" fill="#ccf" stroke="#f88"/><text x="15" y="45">Outer Clip</text></g><g transform="translate(405,150)"><rect width="250" height="60" fill="#ccf" stroke="#f88"/><text x="15" y="45">Outer Clip</text></g><g transform="translate(115,330)"><rect width="250" height="60" fill="#ccf" stroke="#f88"/><text x="15" y="45">Outer Clip</text></g></g><rect width="250" height="160" x="115" y="100" fill="none" stroke="#060" stroke-width="5"/><svg xmlns="http://www.w3.org/2000/svg" xmlns:xlink="http://www.w3.org/1999/xlink" width="250" height="160" x="115" y="100" version="1.1"><g stroke-width="2" font-family="Arial" font-size="32"><g transform="translate(50,-15)"><rect width="150" height="35" fill="#faa" stroke="#66f"/><text x="6" y="26">Inner Clip</text></g><g transform="translate(-50,62.5)"><rect width="150" height="35" fill="#faa" stroke="#66f"/><text x="6" y="26">Inner Clip</text></g><g transform="translate(150,62.5)"><rect width="150" height="35" fill="#faa" stroke="#66f"/><text x="6" y="26">Inner Clip</text></g><g transform="translate(50,140)"><rect width="150" height="35" fill="#faa" stroke="#66f"/><text x="6" y="26">Inner Clip</text></g></g></svg></g><text id="revision" x="10" y="340" fill="#000" stroke="none" font-size="40">$Revision: 1.2 $</text><rect id="test-frame" width="478" height="358" x="1" y="1" fill="none" stroke="#000"/></svg>