<svg xmlns="http://www.w3.org/2000/svg" xmlns:xlink="http://www.w3.org/1999/xlink" id="svg-root" width="100%" height="100%" baseProfile="tiny" version="1.1" viewBox="0 0 480 360"><title id="test-title">paths-data-04-t</title><desc id="test-desc">Test that viewer has the basic capability to handle the &lt;path&gt; element and data (d) attribute in combination with the moveto, lineto, and closepath commands - M, L, Z, m, l, and z.</desc><g id="test-body-content"><g transform="scale(1.8)"><text x="88" y="30" font-family="Arial" font-size="12">M, L, L, L, Z,</text><text x="98" y="46" font-family="Arial" font-size="12">subpath</text><text x="88" y="61" font-family="Arial" font-size="12">M, L, L, L, Z</text><path id="Triangle_stroke_MLZ" fill="none" stroke="#000" d="M 62.00000 56.00000 L 113.96152 146.00000 L 10.03848 146.00000 L 62.00000 56.00000 Z M 62.00000 71.00000 L 100.97114 138.50000 L 23.02886 138.50000 L 62.00000 71.00000 Z"/><rect width="4" height="4" x="60" y="54" fill="#00C000" stroke="none"/><rect width="4" height="4" x="111.962" y="144" fill="#00C000" stroke="none"/><rect width="4" height="4" x="8.038" y="144" fill="#00C000" stroke="none"/><rect width="4" height="4" x="60" y="69" fill="#00C000" stroke="none"/><rect width="4" height="4" x="98.971" y="136.5" fill="#00C000" stroke="none"/><rect width="4" height="4" x="21.029" y="136.5" fill="#00C000" stroke="none"/><text x="42" y="162" font-family="Arial" font-size="12">stroked</text><path id="Triangle_fill_MLZ" fill="red" fill-rule="evenodd" stroke="none" d="M 177.00000 56.00000 L 228.96152 146.00000 L 125.03848 146.00000 L 177.00000 56.00000 Z M 177.00000 71.00000 L 215.97114 138.50000 L 138.02886 138.50000 L 177.00000 71.00000 Z"/><rect width="4" height="4" x="175" y="54" fill="#00C000" stroke="none"/><rect width="4" height="4" x="226.962" y="144" fill="#00C000" stroke="none"/><rect width="4" height="4" x="123.038" y="144" fill="#00C000" stroke="none"/><rect width="4" height="4" x="175" y="69" fill="#00C000" stroke="none"/><rect width="4" height="4" x="213.971" y="136.5" fill="#00C000" stroke="none"/><rect width="4" height="4" x="136.029" y="136.5" fill="#00C000" stroke="none"/><text x="162" y="162" font-family="Arial" font-size="12">filled</text></g></g><text id="revision" x="10" y="340" fill="#000" stroke="none" font-size="40">$Revision: 1.7 $</text><rect id="test-frame" width="478" height="358" x="1" y="1" fill="none" stroke="#000"/></svg>