<svg xmlns="http://www.w3.org/2000/svg" xmlns:xlink="http://www.w3.org/1999/xlink" id="svg-root" width="100%" height="100%" baseProfile="tiny" version="1.1" viewBox="0 0 480 360"><title id="test-title">paths-data-07-t</title><desc id="test-desc">Test that viewer has the basic capability to handle the &lt;path&gt; element and data (d) attribute in combination with the moveto, lineto, and closepath commands - M, L, Z, m, l, and z.</desc><g id="test-body-content"><g transform="scale(1.8) translate(-200, -150)"><text x="288" y="180" font-family="Arial" font-size="12">m, h, v, h</text><text x="288" y="194" font-family="Arial" font-size="12">v, h, v, h</text><text x="304" y="208" font-family="Arial" font-size="12">v, z</text><path id="Stairs_stroke_mhvz" fill="none" stroke="#000" d="m 240.00000 190.00000 h 30.00000 v 30.00000 h 30.00000 v 30.00000 h 30.00000 v 30.00000 h -90.00000 v -90.00000 z"/><rect width="4" height="4" x="238" y="188" fill="#00F" stroke="none"/><rect width="4" height="4" x="268" y="188" fill="#00F" stroke="none"/><rect width="4" height="4" x="268" y="218" fill="#00F" stroke="none"/><rect width="4" height="4" x="298" y="218" fill="#00F" stroke="none"/><rect width="4" height="4" x="298" y="248" fill="#00F" stroke="none"/><rect width="4" height="4" x="328" y="248" fill="#00F" stroke="none"/><rect width="4" height="4" x="328" y="278" fill="#00F" stroke="none"/><rect width="4" height="4" x="238" y="278" fill="#00F" stroke="none"/><path id="Stairs_fill_mhvz" fill="#FF0" stroke="none" d="m 350.00000 190.00000 h 30.00000 v 30.00000 h 30.00000 v 30.00000 h 30.00000 v 30.00000 h -90.00000 v -90.00000 z"/><rect width="4" height="4" x="348" y="188" fill="#00F" stroke="none"/><rect width="4" height="4" x="378" y="188" fill="#00F" stroke="none"/><rect width="4" height="4" x="378" y="218" fill="#00F" stroke="none"/><rect width="4" height="4" x="408" y="218" fill="#00F" stroke="none"/><rect width="4" height="4" x="408" y="248" fill="#00F" stroke="none"/><rect width="4" height="4" x="438" y="248" fill="#00F" stroke="none"/><rect width="4" height="4" x="438" y="278" fill="#00F" stroke="none"/><rect width="4" height="4" x="348" y="278" fill="#00F" stroke="none"/></g></g><text id="revision" x="10" y="340" fill="#000" stroke="none" font-size="40">$Revision: 1.7 $</text><rect id="test-frame" width="478" height="358" x="1" y="1" fill="none" stroke="#000"/></svg>