<svg xmlns="http://www.w3.org/2000/svg" xmlns:xlink="http://www.w3.org/1999/xlink" id="svg-root" width="100%" height="100%" baseProfile="tiny" version="1.1" viewBox="0 0 480 360"><title id="test-title">paths-data-06-t</title><desc id="test-desc">Test that viewer has the basic capability to handle the &lt;path&gt; element and data (d) attribute in combination with the moveto, lineto, and closepath commands - M, L, Z, m, l, and z.</desc><g id="test-body-content"><g transform="scale(1.8) translate(-200, 0)"><text x="288" y="30" font-family="Arial" font-size="12">M, H, V, H,</text><text x="288" y="46" font-family="Arial" font-size="12">V. H, V, H,</text><text x="304" y="62" font-family="Arial" font-size="12">V, Z</text><path id="Stairs_stroke_MHVZ" fill="none" stroke="#000" d="M 240.00000 56.00000 H 270.00000 V 86.00000 H 300.00000 V 116.00000 H 330.00000 V 146.00000 H 240.00000 V 56.00000 Z"/><rect width="4" height="4" x="238" y="54" fill="#FF0" stroke="none"/><rect width="4" height="4" x="268" y="54" fill="#FF0" stroke="none"/><rect width="4" height="4" x="268" y="84" fill="#FF0" stroke="none"/><rect width="4" height="4" x="298" y="84" fill="#FF0" stroke="none"/><rect width="4" height="4" x="298" y="114" fill="#FF0" stroke="none"/><rect width="4" height="4" x="328" y="114" fill="#FF0" stroke="none"/><rect width="4" height="4" x="328" y="144" fill="#FF0" stroke="none"/><rect width="4" height="4" x="238" y="144" fill="#FF0" stroke="none"/><path id="Stairs_fill_MHVZ" fill="#00F" stroke="none" d="M 350.00000 56.00000 H 380.00000 V 86.00000 H 410.00000 V 116.00000 H 440.00000 V 146.00000 H 350.00000 V 56.00000 Z"/><rect width="4" height="4" x="348" y="54" fill="#FF0" stroke="none"/><rect width="4" height="4" x="378" y="54" fill="#FF0" stroke="none"/><rect width="4" height="4" x="378" y="84" fill="#FF0" stroke="none"/><rect width="4" height="4" x="408" y="84" fill="#FF0" stroke="none"/><rect width="4" height="4" x="408" y="114" fill="#FF0" stroke="none"/><rect width="4" height="4" x="438" y="114" fill="#FF0" stroke="none"/><rect width="4" height="4" x="438" y="144" fill="#FF0" stroke="none"/><rect width="4" height="4" x="348" y="144" fill="#FF0" stroke="none"/></g></g><text id="revision" x="10" y="340" fill="#000" stroke="none" font-size="40">$Revision: 1.7 $</text><rect id="test-frame" width="478" height="358" x="1" y="1" fill="none" stroke="#000"/></svg>