<svg xmlns="http://www.w3.org/2000/svg" xmlns:xlink="http://www.w3.org/1999/xlink" id="svg-root" width="100%" height="100%" baseProfile="tiny" version="1.1" viewBox="0 0 480 360"><title id="test-title">paths-data-05-t</title><desc id="test-desc">Test that viewer has the basic capability to handle the &lt;path&gt; element and data (d) attribute in combination with the moveto, lineto, and closepath commands - M, L, Z, m, l, and z.</desc><g id="test-body-content"><g transform="scale(1.8) translate(0, -150)"><text x="96" y="180" font-family="Arial" font-size="12">m, l, l, l, z,</text><text x="100" y="194" font-family="Arial" font-size="12">subpath</text><text x="97" y="208" font-family="Arial" font-size="12">m, l, l, l, z</text><path id="Triangle_stroke_mlz" fill="none" stroke="#000" d="m 62.00000 190.00000 l 51.96152 90.00000 l -103.92304 0.00000 l 51.96152 -90.00000 z m 0.00000 15.00000 l 38.97114 67.50000 l -77.91228 0.00000 l 38.97114 -67.50000 z"/><rect width="4" height="4" x="60" y="188" fill="red" stroke="none"/><rect width="4" height="4" x="111.962" y="278" fill="red" stroke="none"/><rect width="4" height="4" x="8.038" y="278" fill="red" stroke="none"/><rect width="4" height="4" x="60" y="203" fill="red" stroke="none"/><rect width="4" height="4" x="98.971" y="270.5" fill="red" stroke="none"/><rect width="4" height="4" x="21.029" y="270.5" fill="red" stroke="none"/><path id="Triangle_fill_mlz" fill="#00C000" fill-rule="evenodd" stroke="none" d="m 177.00000 190.00000 l 51.96152 90.00000 l -103.92304 0.00000 l 51.96152 -90.00000 z m 0.00000 15.00000 l 38.97114 67.50000 l -77.91228 0.00000 l 38.97114 -67.50000 z"/><rect width="4" height="4" x="175" y="188" fill="red" stroke="none"/><rect width="4" height="4" x="226.962" y="278" fill="red" stroke="none"/><rect width="4" height="4" x="123.038" y="278" fill="red" stroke="none"/><rect width="4" height="4" x="175" y="203" fill="red" stroke="none"/><rect width="4" height="4" x="213.971" y="270.5" fill="red" stroke="none"/><rect width="4" height="4" x="136.029" y="270.5" fill="red" stroke="none"/></g></g><text id="revision" x="10" y="340" fill="#000" stroke="none" font-size="40">$Revision: 1.7 $</text><rect id="test-frame" width="478" height="358" x="1" y="1" fill="none" stroke="#000"/></svg>